<?xml version="1.0" encoding="UTF-8"?>
<!DOCTYPE svg PUBLIC "-//W3C//DTD SVG 1.1//EN" "http://www.w3.org/Graphics/SVG/1.1/DTD/svg11.dtd">
<!-- Creator: CorelDRAW 2021.5 -->
<svg xmlns="http://www.w3.org/2000/svg" xml:space="preserve" width="6.4964mm" height="6.5252mm" version="1.1" style="shape-rendering:geometricPrecision; text-rendering:geometricPrecision; image-rendering:optimizeQuality; fill-rule:evenodd; clip-rule:evenodd"
viewBox="0 0 649.64 652.52"
 xmlns:xlink="http://www.w3.org/1999/xlink"
 xmlns:xodm="http://www.corel.com/coreldraw/odm/2003">
 <defs>
  <style type="text/css">
   <![CDATA[
    .fil0 {fill:white;fill-rule:nonzero}
   ]]>
  </style>
 </defs>
 <g id="Слой_x0020_1">
  <metadata id="CorelCorpID_0Corel-Layer"/>
  <g id="_1588027936">
   <g data-name="ig instagram insta photo">
    <path class="fil0" d="M436.98 259.07c-10.2,3.93 -16.93,13.75 -16.93,24.68 0,3.32 0.63,6.62 1.85,9.71 4.68,12.14 7.08,25.06 7.08,38.06 0,58.44 -47.39,105.83 -105.83,105.83 -58.43,0 -105.82,-47.39 -105.82,-105.83 0,-58.43 47.39,-105.82 105.82,-105.82 12.86,0 25.62,2.35 37.64,6.91 2.99,1.14 6.17,1.72 9.38,1.72 14.61,0 26.46,-11.85 26.46,-26.46 0,-10.99 -6.8,-20.84 -17.07,-24.74 -17.92,-6.77 -36.97,-10.26 -56.16,-10.26 -87.65,0 -158.74,71.09 -158.74,158.74 0,42.04 16.69,82.39 46.38,112.14 29.75,29.71 70.12,46.42 112.17,46.42 42.06,0 82.43,-16.71 112.18,-46.42 29.85,-29.77 46.65,-70.24 46.65,-112.41 0,-19.55 -3.62,-38.95 -10.66,-57.18 -3.94,-10.21 -13.76,-16.94 -24.69,-16.94 -3.32,0 -6.62,0.63 -9.71,1.85z"/>
    <circle class="fil0" cx="504.45" cy="144.77" r="26.46"/>
    <path class="fil0" d="M636.74 144.77c0,0.01 0,-0.02 0,-0.02 0,-72.02 -57.66,-130.82 -129.64,-132.26 -61.75,-5.56 -124.27,-8.55 -186.54,-8.55 -62.26,0 -124.78,2.99 -186.55,8.47 0.03,0.07 0.01,0.07 0.01,0.07 -72.23,0 -131.13,57.96 -132.27,130.17 -4.48,61.87 -7.15,124.22 -7.15,186.27 0,62.04 2.67,124.39 7.13,186.14 0.02,0.11 0.02,0.14 0.02,0.14 0,72.02 57.66,130.82 129.64,132.26 62.44,5.82 125.15,9 187.85,9 62.7,0 124.62,-2.91 186.53,-9 71.73,-0.68 129.83,-58.46 130.97,-130.16 4.73,-61.65 7.54,-124.38 7.54,-186.27 0,-61.88 -2.81,-124.61 -7.6,-186.22l0.06 -0.04zm-52.92 370.42c0.01,43.82 -35.54,79.37 -79.37,79.37l-2.65 0c-60.85,5.69 -122.48,8.93 -183.87,8.93 -61.4,0 -123.03,-3.24 -183.97,-9.04 0.08,0.11 0.05,0.11 0.05,0.11 -43.83,0 -79.38,-35.55 -79.38,-79.38 0,-0.7 0.02,-1.42 0.03,-2.11 -4.55,-60.89 -6.94,-122.97 -6.94,-184.15 0,-61.19 2.39,-123.27 6.86,-184.15 0.08,0 0.08,-0.02 0.08,-0.03 0,-43.83 35.55,-79.38 79.38,-79.38 0.78,0 1.61,0.02 2.38,0.04 60.67,-5.47 121.52,-8.29 182.56,-8.47 61.03,-0.18 122.85,2.65 185.47,8.47 0,-0.01 0.03,-0.01 0.03,-0.01 43.83,0 79.38,35.55 79.38,79.38 0,0.7 -0.02,1.42 -0.03,2.11 5.07,60.97 7.54,122.84 7.54,184.15 0,61.32 -2.47,123.19 -7.42,184.24l-0.13 -0.08z"/>
   </g>
  </g>
 </g>
</svg>
