<?xml version="1.0" encoding="UTF-8"?>
<!DOCTYPE svg PUBLIC "-//W3C//DTD SVG 1.1//EN" "http://www.w3.org/Graphics/SVG/1.1/DTD/svg11.dtd">
<!-- Creator: CorelDRAW 2021.5 -->
<svg xmlns="http://www.w3.org/2000/svg" xml:space="preserve" width="7.1704mm" height="6.2872mm" version="1.1" style="shape-rendering:geometricPrecision; text-rendering:geometricPrecision; image-rendering:optimizeQuality; fill-rule:evenodd; clip-rule:evenodd"
viewBox="0 0 717.04 628.72"
 xmlns:xlink="http://www.w3.org/1999/xlink"
 xmlns:xodm="http://www.corel.com/coreldraw/odm/2003">
 <defs>
  <style type="text/css">
   <![CDATA[
    .fil0 {fill:white;fill-rule:nonzero}
   ]]>
  </style>
 </defs>
 <g id="Слой_x0020_1">
  <metadata id="CorelCorpID_0Corel-Layer"/>
  <path class="fil0" d="M690.7 17.77c-10.63,-8.92 -24.07,-13.82 -37.95,-13.82 -7.57,0 -15.09,1.47 -22.11,4.3l-606.16 242.62c-18.05,7.51 -29.84,25.16 -29.84,44.72 0,19.56 11.79,37.2 29.85,44.7l39.16 16.14c3.26,1.38 6.77,2.09 10.31,2.09 10.62,0 20.21,-6.34 24.35,-16.11 1.35,-3.24 2.05,-6.72 2.05,-10.22 0,-10.69 -6.45,-20.34 -16.34,-24.44l-29.1 -11.91 595.58 -238.13c0.9,-0.54 1.96,-0.84 3.03,-0.84 1.07,0 2.13,0.3 3.04,0.86 1.42,1.21 2.24,2.98 2.24,4.84 0,0.42 -0.04,0.84 -0.12,1.25l-108.74 507.47c-0.73,3.65 -3.35,6.67 -6.89,7.91 -1.2,0.49 -2.5,0.74 -3.8,0.74 -2.37,0 -4.67,-0.82 -6.51,-2.32l-211.67 -165.1 207.17 -209.29c4.75,-4.92 7.41,-11.5 7.41,-18.35 0,-14.61 -11.85,-26.46 -26.46,-26.46 -4.64,0 -9.21,1.22 -13.23,3.54l-303.74 179.92c-9.47,4.28 -15.56,13.71 -15.56,24.11 0,14.61 11.85,26.46 26.46,26.46 5.59,0 11.04,-1.77 15.56,-5.06l127.79 -75.41 -62.18 63.24c-10.63,9.99 -16.68,23.96 -16.68,38.56 0,17 8.18,32.99 21.97,42.93l211.67 162.72c11.11,8.56 24.76,13.22 38.79,13.22 0.03,0 0.07,0 0.1,0 7.49,-0.05 14.94,-1.4 21.96,-3.97 20.55,-7.36 35.8,-24.92 40.23,-46.29l107.95 -506.94c0.89,-4.12 1.35,-8.36 1.35,-12.59 0,-17.37 -7.66,-33.88 -20.94,-45.08l0 -0.01z" data-name="telegram social media network chat"/>
 </g>
</svg>
