<?xml version="1.0" encoding="UTF-8"?>
<!DOCTYPE svg PUBLIC "-//W3C//DTD SVG 1.1//EN" "http://www.w3.org/Graphics/SVG/1.1/DTD/svg11.dtd">
<!-- Creator: CorelDRAW 2021.5 -->
<svg xmlns="http://www.w3.org/2000/svg" xml:space="preserve" width="6.9282mm" height="4.5008mm" version="1.1" style="shape-rendering:geometricPrecision; text-rendering:geometricPrecision; image-rendering:optimizeQuality; fill-rule:evenodd; clip-rule:evenodd"
viewBox="0 0 692.82 450.08"
 xmlns:xlink="http://www.w3.org/1999/xlink"
 xmlns:xodm="http://www.corel.com/coreldraw/odm/2003">
 <defs>
  <style type="text/css">
   <![CDATA[
    .fil0 {fill:white;fill-rule:nonzero}
   ]]>
  </style>
 </defs>
 <g id="Слой_x0020_1">
  <metadata id="CorelCorpID_0Corel-Layer"/>
  <path class="fil0" d="M684.26 373.99c-31.27,-49.24 -67.99,-95.09 -109.27,-136.27 -0.75,-0.94 -1.16,-2.11 -1.16,-3.31 0,-1.2 0.41,-2.37 1.16,-3.31 35.41,-48.44 67.06,-100.06 93.99,-153.77 3.49,-6.98 5.36,-14.77 5.36,-22.66 0,-9.36 -2.61,-18.53 -7.54,-26.49 -8.44,-15.17 -24.44,-24.6 -41.8,-24.61l-79.38 0c-20.57,0.4 -39.05,12.69 -47.37,31.49 -22.89,50.91 -50.82,99.86 -82.59,145.76l0.05 -129.62c0,-0.09 0,-0.18 0,-0.27 0,-26.15 -21.21,-47.36 -47.36,-47.36 -0.09,0 -0.18,0 -0.27,0l-115.89 0c-20.21,0.32 -36.45,16.81 -36.45,37.04 0,7.68 2.39,15.18 6.83,21.43l10.58 14.82c5.67,8.15 8.72,17.85 8.73,27.78l0 101.6c-34.82,-51.62 -62.74,-107.87 -82.56,-166.91 -7.32,-21.39 -27.41,-35.75 -49.99,-35.76l-64.83 0c-25.05,0.3 -45.22,20.71 -45.22,45.77 0,3.65 0.44,7.3 1.3,10.85 35.72,151.61 110.6,277.28 205.58,343.96 4.48,3.17 9.84,4.88 15.33,4.88 8.5,0 16.48,-4.08 21.46,-10.97 3.25,-4.51 5.01,-9.94 5.01,-15.5 0,-8.55 -4.14,-16.58 -11.1,-21.55 -83.09,-58.19 -149.24,-169.05 -182.84,-304.52l55.56 0c24.35,73.93 61.05,143.36 108.46,205.03 8.05,10.25 20.36,16.25 33.37,16.25 4.87,0 9.71,-0.85 14.29,-2.49 17.41,-6.06 29.1,-22.5 29.1,-40.96 0,-0.19 -0.01,-0.39 -0.01,-0.57l0 -129.12c0.01,-0.09 0.01,-0.21 0.01,-0.32 0,-16.7 -4.19,-33.15 -12.17,-47.81l79.37 -0.01 0 143.67c-0.01,0.14 -0.01,0.29 -0.01,0.43 0,20.96 13.95,39.38 34.13,45.06 4.69,1.57 9.6,2.37 14.54,2.37 15.44,0 29.85,-7.75 38.38,-20.61 37.48,-53.41 69.87,-111.06 95.83,-170.96l74.04 0.04c-25.07,49.48 -54.39,97.18 -87.06,142.06 -7.4,9.95 -11.42,22.01 -11.42,34.39 0,15.17 6.01,29.75 16.72,40.5 38.43,38.72 73.46,81.51 103.71,127l-88.63 0.01c-27.31,-45.22 -64.07,-84.2 -107.67,-114.05 -7.45,-5.44 -16.44,-8.39 -25.66,-8.39 -7.01,0 -13.92,1.7 -20.12,4.95 -14.95,7.65 -24.35,23.03 -24.35,39.81 0,0.14 0,0.27 0,0.41l0 62.97c0.01,0.18 0.01,0.37 0.01,0.55 0,7.44 -5.81,13.58 -13.24,14l-22.75 0.01c-14.6,-0.01 -26.45,11.84 -26.45,26.45 0,14.61 11.85,26.46 26.46,26.46l22.74 0.01c36.62,-0.28 66.16,-30.06 66.16,-66.68 0,-0.26 -0.01,-0.55 -0.01,-0.8l0 -46.83c31.78,23.89 58.8,53.8 79.38,87.86 9.24,16.01 26.21,26.05 44.71,26.44l89.43 0.01c0.03,-0.01 0.08,-0.01 0.12,-0.01 18.58,0 35.69,-10.15 44.59,-26.46 4.28,-7.79 6.53,-16.55 6.53,-25.45 0,-9.79 -2.73,-19.4 -7.85,-27.73l0 0.01z" data-name="vk vkontakte media social"/>
 </g>
</svg>
